<?xml version="1.0" standalone="no"?>
<!DOCTYPE svg PUBLIC "-//W3C//DTD SVG 20010904//EN"
 "http://www.w3.org/TR/2001/REC-SVG-20010904/DTD/svg10.dtd">
<svg version="1.0" xmlns="http://www.w3.org/2000/svg"
 width="512.000000pt" height="512.000000pt" viewBox="0 0 512.000000 512.000000"
 preserveAspectRatio="xMidYMid meet">

<g transform="translate(0.000000,512.000000) scale(0.100000,-0.100000)"
fill="#000000" stroke="none">
<path d="M2410 4794 c-19 -2 -78 -11 -130 -20 -502 -87 -939 -417 -1160 -879
-198 -415 -210 -869 -35 -1401 199 -606 646 -1313 1257 -1989 169 -188 198
-206 267 -170 58 30 420 447 633 730 620 823 942 1597 915 2200 -34 745 -560
1359 -1292 1505 -97 20 -372 34 -455 24z m418 -235 c693 -134 1179 -784 1112
-1489 -43 -464 -240 -946 -625 -1530 -192 -293 -486 -670 -689 -885 l-66 -70
-66 70 c-274 291 -669 822 -869 1170 -237 412 -389 810 -436 1145 -18 125 -15
357 5 470 103 573 559 1027 1126 1124 52 9 113 18 135 20 77 8 271 -5 373 -25z"/>
<path d="M2384 4031 c-245 -60 -443 -240 -528 -478 -91 -258 -31 -548 156
-748 212 -227 510 -301 801 -200 105 36 174 82 272 180 130 130 190 250 215
436 20 142 -16 322 -87 449 -44 77 -129 175 -195 225 -82 62 -206 121 -297
140 -95 20 -247 18 -337 -4z m292 -206 c342 -80 514 -449 355 -763 -60 -120
-181 -222 -310 -263 -91 -29 -231 -29 -322 0 -346 110 -482 538 -263 827 127
168 341 246 540 199z"/>
</g>
</svg>
