<?xml version="1.0" standalone="no"?>
<!DOCTYPE svg PUBLIC "-//W3C//DTD SVG 20010904//EN"
 "http://www.w3.org/TR/2001/REC-SVG-20010904/DTD/svg10.dtd">
<svg version="1.0" xmlns="http://www.w3.org/2000/svg"
 width="512.000000pt" height="512.000000pt" viewBox="0 0 512.000000 512.000000"
 preserveAspectRatio="xMidYMid meet">

<g transform="translate(0.000000,512.000000) scale(0.100000,-0.100000)"
fill="#000000" stroke="none">
<path d="M1588 4979 c-197 -9 -329 -28 -465 -65 -497 -134 -837 -503 -943
-1025 -41 -202 -45 -308 -45 -1334 0 -1054 3 -1137 51 -1355 114 -515 463
-876 971 -1004 140 -35 227 -45 498 -57 306 -14 1866 -6 2015 10 411 44 680
159 911 390 232 232 350 510 391 916 18 182 19 2023 0 2209 -39 403 -159 684
-391 917 -229 228 -510 350 -897 390 -136 14 -1843 21 -2096 8z m1937 -439
c258 -16 400 -48 552 -125 260 -130 396 -352 451 -729 15 -109 17 -216 15
-1106 -1 -813 -4 -1008 -17 -1115 -61 -521 -281 -771 -754 -859 -167 -31 -425
-38 -1347 -33 -767 3 -916 7 -1011 21 -223 32 -360 88 -509 207 -179 142 -277
337 -316 627 -15 107 -13 2100 2 2234 64 587 375 851 1039 881 179 8 1755 6
1895 -3z"/>
<path d="M3770 4151 c-87 -27 -155 -86 -192 -166 -31 -68 -32 -190 -2 -256 86
-186 333 -238 485 -101 76 68 101 128 100 242 -1 166 -133 292 -304 289 -34 0
-73 -4 -87 -8z"/>
<path d="M2405 3779 c-469 -64 -861 -386 -1008 -829 -84 -252 -83 -525 4 -792
137 -422 466 -712 914 -804 123 -25 366 -26 485 -1 563 119 922 525 981 1112
61 602 -378 1184 -983 1300 -103 20 -300 27 -393 14z m370 -454 c87 -24 232
-97 295 -149 199 -165 314 -458 280 -713 -43 -327 -254 -576 -570 -675 -64
-20 -96 -23 -220 -23 -124 0 -156 3 -220 23 -308 97 -513 331 -567 649 -13 82
-14 110 -4 196 47 383 284 638 661 711 53 10 286 -3 345 -19z"/>
</g>
</svg>
